<svg id="Layer_1" data-name="Layer 1" xmlns="http://www.w3.org/2000/svg" viewBox="0 0 468.45 113.5" class="vu-cas-logo">
                            <defs>
                                <style>
                                    .cls-1{fill:#231f20;}
                                </style>
                            </defs>
                            <title>vu-logo</title>
                            <polygon class="cls-1" points="154.77 13.51 162.64 40.13 170.43 13.51 188.56 13.51 170.24 61.59 155.1 61.59 136.64 13.51 154.77 13.51"></polygon><rect class="cls-1" x="192.07" y="13.51" width="17.18" height="48.08"></rect><path class="cls-1" d="M296,79.87c-2.81-2.48-5.54-3.68-8.6-3.68a9.44,9.44,0,0,0-9.67,9.5,9.28,9.28,0,0,0,9.6,9.37A14.3,14.3,0,0,0,296,92v17a43.46,43.46,0,0,1-10.87,1.66c-14.39,0-25.11-10.51-25.11-24.4a25,25,0,0,1,24.91-25.33,39.22,39.22,0,0,1,7.6.87,34.28,34.28,0,0,1,3.47.86Z" transform="translate(-48.08 -48.08)"></path><polygon class="cls-1" points="252.21 13.51 288.63 13.51 288.63 29.21 278.9 28.67 278.9 61.59 261.8 61.59 261.8 28.6 252.21 28.94 252.21 13.51"></polygon><path class="cls-1" d="M337.9,85.71c0,15,10.54,25,26.11,25s26.05-10,26.05-25-10.54-25-26.05-25S337.9,70.76,337.9,85.71ZM364,76.08c4.85,0,8.45,4.08,8.45,9.57s-3.53,9.7-8.45,9.7-8.57-4.08-8.57-9.64S359,76.08,364,76.08Z" transform="translate(-48.08 -48.08)"></path><path class="cls-1" d="M394.71,109.67H412V98.49c0-.13-.07-.73-.14-1.53-.19-1.8-.32-2.86-.66-5.27,1,2.41,1.53,3.47,2.13,4.8l.66,1.4,5.79,11.78h19.89L427.17,90.88c5.81-1.94,8.74-6.22,8.74-12.92,0-9.47-7.8-16.37-18.55-16.37H394.71Zm17.34-35.12h2.25c2.86,0,4.73,1.67,4.73,4.22s-1.8,4.28-4.73,4.28h-2.25Z" transform="translate(-48.08 -48.08)"></path><rect class="cls-1" x="395.63" y="13.51" width="17.18" height="48.08"></rect><path class="cls-1" d="M463.53,109.67h18.14l1.79-6.12h13.13l1.81,6.12h18.13l-16.6-48.08h-19.8ZM490,77.82l3.6,14.36h-7.27Z" transform="translate(-48.08 -48.08)"></path><path class="cls-1" d="M223.65,145.72a21.18,21.18,0,0,1-.69,5.75c-1.75,6.44-7.87,10.11-16.87,10.11-5.1,0-9.77-1.39-12.79-3.73-3.14-2.6-4.73-6.53-4.73-12.13V122.48h13.64v21.58a9.71,9.71,0,0,0,.37,3.58,3.63,3.63,0,0,0,3.51,2.08,4,4,0,0,0,2.51-.8c1.17-.8,1.43-1.65,1.43-4.86V122.48h13.62Z" transform="translate(-48.08 -48.08)"></path><polygon class="cls-1" points="180.04 74.4 193.73 74.4 205.61 93.86 205.61 74.4 219.14 74.4 219.14 112.74 205.14 112.74 193.67 93.86 193.67 112.74 180.04 112.74 180.04 74.4"></polygon><rect class="cls-1" x="223.62" y="74.4" width="13.7" height="38.34"></rect><polygon class="cls-1" points="253.46 74.4 259.74 95.63 265.95 74.4 280.41 74.4 265.8 112.74 253.73 112.74 239.01 74.4 253.46 74.4"></polygon><polygon class="cls-1" points="281.88 74.4 307.39 74.4 307.39 84.73 295.64 84.73 295.64 88.38 306.33 88.38 306.33 98.39 295.64 98.39 295.64 102 307.71 102 307.71 112.74 281.88 112.74 281.88 74.4"></polygon><path class="cls-1" d="M359.39,160.82h13.78v-8.91c0-.11-.06-.59-.11-1.23-.16-1.43-.27-2.28-.53-4.2.79,1.92,1.22,2.77,1.7,3.83l.53,1.11,4.61,9.4h15.86l-10-15c4.63-1.55,7-5,7-10.31,0-7.55-6.23-13-14.79-13H359.39Zm13.83-28H375c2.28,0,3.76,1.33,3.76,3.37s-1.43,3.41-3.76,3.41h-1.8Z" transform="translate(-48.08 -48.08)"></path><path class="cls-1" d="M399.53,147.09c3.41,2.66,6.38,3.94,9.36,3.94,2,0,3.48-.9,3.48-2.24a1.85,1.85,0,0,0-1.34-1.7,11,11,0,0,0-3-.65,27.37,27.37,0,0,1-4.47-1.06,10,10,0,0,1-6.91-9.87c0-8,6.7-13.59,16.3-13.59a23.65,23.65,0,0,1,12.4,3.45l-3.84,9.71a12.47,12.47,0,0,0-7.82-2.93c-1.92,0-3.21.8-3.21,2,0,1,.8,1.55,3.05,2l2.5.58a21.31,21.31,0,0,1,5.48,1.92,10.31,10.31,0,0,1,5,9.28c0,8.19-6.71,13.7-16.63,13.7a31.19,31.19,0,0,1-10.9-2.12,22.25,22.25,0,0,1-3.73-1.75Z" transform="translate(-48.08 -48.08)"></path><rect class="cls-1" x="380.68" y="74.4" width="13.7" height="38.34"></rect><polygon class="cls-1" points="397.6 74.4 426.64 74.4 426.64 86.92 418.88 86.49 418.88 112.74 405.25 112.74 405.25 86.44 397.6 86.7 397.6 74.4"></polygon><polygon class="cls-1" points="443.46 74.4 447.87 84.16 452.28 74.4 467.81 74.4 454.79 96.32 454.79 112.74 440.95 112.74 440.95 96.32 427.93 74.4 443.46 74.4"></polygon><path class="cls-1" d="M103.88,49.7a1.62,1.62,0,0,1,1.63-.13,2.33,2.33,0,0,1-.35-1.49,2.33,2.33,0,0,1-.79,0l0,0A2.27,2.27,0,0,1,103.88,49.7Z" transform="translate(-48.08 -48.08)"></path><path class="cls-1" d="M49.75,105.51a1.61,1.61,0,0,1,.06-1.74,2.33,2.33,0,0,1-1.61.49l-.12.12a2.5,2.5,0,0,1,0,.67l.05,0A2.37,2.37,0,0,1,49.75,105.51Z" transform="translate(-48.08 -48.08)"></path><path class="cls-1" d="M105.81,57.39a1.47,1.47,0,0,1-2.08-2.09,1.47,1.47,0,1,1,2.08,2.09Zm2.69,2.69a1.48,1.48,0,1,1,0-2.09A1.47,1.47,0,0,1,108.5,60.08Zm2.68,2.67a1.47,1.47,0,1,1,0-2.08A1.47,1.47,0,0,1,111.18,62.75Zm2.67,2.67a1.47,1.47,0,1,1,0-2.08A1.47,1.47,0,0,1,113.85,65.42Zm2.63,2.64a1.47,1.47,0,1,1,0-2.09A1.48,1.48,0,0,1,116.48,68.06Zm2.64,2.63A1.47,1.47,0,1,1,117,68.61a1.47,1.47,0,0,1,2.09,2.08Zm2.68,2.68a1.47,1.47,0,1,1,0-2.08A1.47,1.47,0,0,1,121.8,73.37ZM124.46,76A1.47,1.47,0,1,1,122.38,74,1.47,1.47,0,0,1,124.46,76Zm2.66,2.65a1.47,1.47,0,1,1,0-2.08A1.47,1.47,0,0,1,127.12,78.69Zm2.66,2.66a1.47,1.47,0,0,1-2.09-2.08,1.49,1.49,0,0,1,2.09,0A1.46,1.46,0,0,1,129.78,81.35ZM132.45,84a1.47,1.47,0,1,1,0-2.08A1.47,1.47,0,0,1,132.45,84Zm2.66,2.66a1.47,1.47,0,1,1,0-2.08A1.47,1.47,0,0,1,135.11,86.68Zm2.64,2.65a1.46,1.46,0,0,1-2.08,0,1.48,1.48,0,0,1,0-2.08,1.47,1.47,0,0,1,2.08,2.08ZM140.41,92a1.47,1.47,0,1,1,0-2.08A1.47,1.47,0,0,1,140.41,92Zm2.66,2.66a1.47,1.47,0,1,1,0-2.08A1.47,1.47,0,0,1,143.07,94.64Zm2.66,2.66a1.47,1.47,0,1,1,0-2.08A1.47,1.47,0,0,1,145.73,97.3Zm2.65,2.65a1.47,1.47,0,1,1,0-2.08A1.47,1.47,0,0,1,148.38,100Zm2.66,2.67a1.47,1.47,0,1,1,0-2.09A1.48,1.48,0,0,1,151,102.62Zm2.65,2.64a1.47,1.47,0,1,1,0-2.08A1.47,1.47,0,0,1,153.69,105.26ZM103.12,60.09a1.49,1.49,0,0,1-2.09,0A1.48,1.48,0,0,1,103.12,58,1.49,1.49,0,0,1,103.12,60.09Zm8.68,8.7a1.3,1.3,0,0,1,1.86,0,1.32,1.32,0,0,1,0,1.86,1.32,1.32,0,0,1-1.86-1.86Zm-2.65-2.64a1.32,1.32,0,1,1,0,1.86A1.32,1.32,0,0,1,109.15,66.15Zm-.89-2.63a1.2,1.2,0,1,1-1.69,0A1.21,1.21,0,0,1,108.26,63.52Zm-2.55-.85a1.32,1.32,0,0,1-1.86-1.87,1.32,1.32,0,1,1,1.86,1.87Zm40.69,40.68a1.3,1.3,0,0,1,1.86,0,1.32,1.32,0,0,1-1.86,1.87A1.32,1.32,0,0,1,146.4,103.35Zm-21.22-21.2a1.19,1.19,0,1,1,0,1.69A1.2,1.2,0,0,1,125.18,82.15Zm4.38,4.37a1.19,1.19,0,0,1-1.68-1.69,1.18,1.18,0,0,1,1.68,0A1.19,1.19,0,0,1,129.56,86.52Zm2.67,2.66a1.21,1.21,0,0,1-1.69,0,1.19,1.19,0,1,1,1.69,0Zm2.64,2.64a1.19,1.19,0,0,1-1.69,0,1.2,1.2,0,0,1,1.69-1.69A1.19,1.19,0,0,1,134.87,91.82Zm2.65,2.65a1.19,1.19,0,1,1,0-1.68A1.18,1.18,0,0,1,137.52,94.47Zm2.66,2.66a1.19,1.19,0,0,1-1.69,0,1.2,1.2,0,0,1,1.69-1.69A1.19,1.19,0,0,1,140.18,97.13Zm5.31,3.63a1.18,1.18,0,0,1,0,1.68,1.19,1.19,0,1,1,0-1.68Zm-2.66-1a1.19,1.19,0,0,1-1.69,0,1.2,1.2,0,1,1,1.69,0ZM122.56,79.51a1.19,1.19,0,0,1,1.69,0,1.2,1.2,0,0,1-1.69,1.69A1.19,1.19,0,0,1,122.56,79.51Zm-2.67-2.67a1.19,1.19,0,0,1,1.69,0,1.2,1.2,0,0,1-1.69,1.69A1.19,1.19,0,0,1,119.89,76.84Zm-5.33-3.64a1.19,1.19,0,1,1,1.69,0A1.2,1.2,0,0,1,114.56,73.2Zm2.65,1a1.2,1.2,0,1,1,0,1.69A1.21,1.21,0,0,1,117.21,74.16ZM151,107.93a1.48,1.48,0,0,1-2.09-2.09,1.49,1.49,0,0,1,2.09,0A1.47,1.47,0,0,1,151,107.93ZM100.43,62.77a1.47,1.47,0,1,1,0-2.09A1.48,1.48,0,0,1,100.43,62.77ZM143.71,106a1.32,1.32,0,0,1,1.87,1.86,1.32,1.32,0,1,1-1.87-1.86ZM103,65.35a1.32,1.32,0,1,1,0-1.87A1.32,1.32,0,0,1,103,65.35Zm2.55,2.54a1.19,1.19,0,0,1-1.69,0,1.18,1.18,0,0,1,0-1.68,1.19,1.19,0,1,1,1.69,1.68Zm2.7,2.71a1.19,1.19,0,1,1,0-1.68A1.18,1.18,0,0,1,108.28,70.6Zm2.62,2.62a1.19,1.19,0,1,1,0-1.68A1.18,1.18,0,0,1,110.9,73.22Zm2.66,2.66a1.18,1.18,0,0,1-1.68,0,1.2,1.2,0,0,1,0-1.68,1.19,1.19,0,1,1,1.68,1.68Zm2.65,2.65a1.19,1.19,0,1,1,0-1.68A1.18,1.18,0,0,1,116.21,78.53Zm2.68,2.67a1.19,1.19,0,0,1-1.69,0,1.18,1.18,0,0,1,0-1.68,1.19,1.19,0,1,1,1.69,1.68Zm2.64,2.65a1.2,1.2,0,1,1,0-1.69A1.21,1.21,0,0,1,121.53,83.85Zm2.67,2.67a1.18,1.18,0,0,1-1.68,0,1.2,1.2,0,0,1,0-1.68,1.19,1.19,0,0,1,1.68,1.68Zm2.67,2.67a1.2,1.2,0,1,1,0-1.69A1.21,1.21,0,0,1,126.87,89.19Zm2.66,2.66a1.18,1.18,0,0,1-1.68,0,1.19,1.19,0,1,1,1.68,0Zm2.64,2.64a1.18,1.18,0,0,1-1.68,0,1.19,1.19,0,1,1,1.68,0Zm2.67,2.67a1.2,1.2,0,1,1,0-1.69A1.21,1.21,0,0,1,134.84,97.16Zm6.28,6.28a1.19,1.19,0,1,1,0,1.68A1.18,1.18,0,0,1,141.12,103.44Zm-5.19-3.75a1,1,0,0,1,0-1.43,1,1,0,1,1,0,1.43ZM138.6,101a1,1,0,1,1,0,1.42A1,1,0,0,1,138.6,101Zm9.68,9.65a1.47,1.47,0,1,1,0-2.08A1.47,1.47,0,0,1,148.28,110.61ZM97.77,65.43a1.47,1.47,0,1,1-2.09-2.08,1.47,1.47,0,0,1,2.09,2.08ZM141,108.71a1.32,1.32,0,1,1,0,1.87A1.32,1.32,0,0,1,141,108.71ZM100.35,68a1.32,1.32,0,0,1-1.87-1.86A1.32,1.32,0,0,1,100.35,68Zm2.55,2.54a1.19,1.19,0,1,1,0-1.68A1.19,1.19,0,0,1,102.9,70.57Zm35.54,35.55a1.19,1.19,0,0,1,1.69,0,1.18,1.18,0,0,1,0,1.68,1.19,1.19,0,1,1-1.69-1.68Zm-2.53-2.48a1,1,0,1,1,0,1.42A1,1,0,0,1,135.91,103.64Zm-1.39-2.48a.75.75,0,1,1-1.07,0A.77.77,0,0,1,134.52,101.16Zm-3.94-2.85a1,1,0,0,1,1.42,0,1,1,0,0,1,0,1.42,1,1,0,0,1-1.42-1.42Zm-2.66-2.65a1,1,0,0,1,1.43,1.42,1,1,0,0,1-1.43,0A1,1,0,0,1,127.92,95.66ZM125.25,93a1,1,0,1,1,0,1.42A1,1,0,0,1,125.25,93Zm-2.62-2.62a1,1,0,1,1,0,1.41A1,1,0,0,1,122.63,90.36ZM120,87.69a1,1,0,1,1,0,1.42A1,1,0,0,1,120,87.69ZM117.27,85a1,1,0,1,1,0,1.42A1,1,0,0,1,117.27,85Zm-2.66-2.66a1,1,0,0,1,1.43,0,1,1,0,1,1-1.43,0ZM112,79.68a1,1,0,1,1,0,1.43A1,1,0,0,1,112,79.68ZM109.3,77a1,1,0,0,1,1.42,0,1,1,0,0,1,0,1.43,1,1,0,0,1-1.42,0A1,1,0,0,1,109.3,77ZM104,73.15a1,1,0,1,1,1.42,0A1,1,0,0,1,104,73.15Zm2.65,1.23a1,1,0,1,1,0,1.42A1,1,0,0,1,106.65,74.38Zm39,38.9a1.47,1.47,0,1,1-2.09-2.08,1.47,1.47,0,0,1,2.09,2.08ZM95.08,68.12a1.47,1.47,0,1,1,0-2.08A1.47,1.47,0,0,1,95.08,68.12Zm43.27,43.28a1.32,1.32,0,1,1,0,1.86A1.32,1.32,0,0,1,138.35,111.4ZM97.66,70.71a1.3,1.3,0,0,1-1.86,0,1.32,1.32,0,0,1,0-1.86,1.32,1.32,0,0,1,1.86,1.86Zm2.59,2.51a1.19,1.19,0,0,1-1.69,0,1.18,1.18,0,0,1,0-1.68,1.19,1.19,0,1,1,1.69,1.68Zm35.54,35.55a1.19,1.19,0,0,1,1.69,0,1.2,1.2,0,0,1-1.69,1.69A1.19,1.19,0,0,1,135.79,108.77Zm-2.51-2.5a1,1,0,0,1,1.42,0,1,1,0,0,1,0,1.42,1,1,0,0,1-1.42-1.42ZM102.79,75.78a1,1,0,1,1,0-1.42A1,1,0,0,1,102.79,75.78Zm2.45,2.49a.76.76,0,1,1,0-1.07A.77.77,0,0,1,105.24,78.27Zm2.66,2.66a.75.75,0,1,1,0-1.07A.75.75,0,0,1,107.9,80.93Zm2.66,2.66a.75.75,0,1,1,0-1.07A.75.75,0,0,1,110.56,83.59Zm2.66,2.66a.75.75,0,1,1,0-1.07A.75.75,0,0,1,113.22,86.25Zm2.66,2.66a.75.75,0,1,1,0-1.07A.75.75,0,0,1,115.88,88.91Zm2.66,2.66a.75.75,0,0,1-1.06,0,.77.77,0,0,1,0-1.07.75.75,0,0,1,1.06,1.07Zm2.66,2.66a.75.75,0,0,1-1.06-1.06.75.75,0,0,1,1.06,1.06Zm2.67,2.66a.76.76,0,1,1,0-1.07A.77.77,0,0,1,123.87,96.89Zm2.66,2.66a.75.75,0,1,1,0-1.06A.75.75,0,0,1,126.53,99.55Zm5.33,4.27a.75.75,0,1,1-1.07,0A.75.75,0,0,1,131.86,103.82Zm-2.67-1.6a.79.79,0,0,1-1.07,0,.77.77,0,0,1,0-1.07.75.75,0,0,1,1.07,0A.77.77,0,0,1,129.19,102.22ZM142.92,116a1.47,1.47,0,0,1-2.08-2.09,1.47,1.47,0,0,1,2.08,2.09ZM92.4,70.8a1.47,1.47,0,1,1,0-2.08A1.47,1.47,0,0,1,92.4,70.8Zm43.27,43.28a1.32,1.32,0,0,1,1.86,0,1.32,1.32,0,1,1-1.86,0ZM95,73.39a1.32,1.32,0,0,1-1.86-1.86,1.32,1.32,0,0,1,1.86,0A1.3,1.3,0,0,1,95,73.39Zm2.56,2.54a1.18,1.18,0,0,1-1.68,0,1.19,1.19,0,1,1,1.68,0Zm35.54,35.54a1.21,1.21,0,0,1,1.69,0,1.2,1.2,0,0,1-1.69,1.69A1.21,1.21,0,0,1,133.08,111.47ZM130.57,109a1,1,0,1,1,0,1.42A1,1,0,0,1,130.57,109ZM100.08,78.49a1,1,0,0,1-1.42,0,1,1,0,1,1,1.42,0Zm29.07,28a.74.74,0,0,1,0,1.06.75.75,0,0,1-1.06,0,.75.75,0,0,1,1.06-1.06ZM102.53,81a.74.74,0,0,1-1.06,0,.75.75,0,0,1,0-1.06A.75.75,0,0,1,102.53,81Zm37.71,37.68a1.47,1.47,0,1,1-2.08-2.09,1.47,1.47,0,0,1,2.08,2.09ZM89.73,73.47a1.47,1.47,0,1,1-2.09-2.08,1.47,1.47,0,0,1,2.09,2.08ZM133,116.76a1.32,1.32,0,1,1,1.87,1.86,1.32,1.32,0,0,1-1.87-1.86ZM92.3,76.07a1.32,1.32,0,0,1-1.86-1.86,1.32,1.32,0,1,1,1.86,1.86Zm2.58,2.52a1.19,1.19,0,0,1-1.69,0,1.18,1.18,0,0,1,0-1.68,1.19,1.19,0,1,1,1.69,1.68Zm35.54,35.55a1.19,1.19,0,0,1,1.69,0,1.2,1.2,0,0,1-1.69,1.69A1.19,1.19,0,0,1,130.42,114.14Zm-2.53-2.48a1,1,0,0,1,1.42,1.42,1,1,0,1,1-1.42-1.42ZM97.41,81.17a1,1,0,1,1,0-1.42A1,1,0,0,1,97.41,81.17Zm2.46,2.46a.75.75,0,0,1-1.06,0,.77.77,0,0,1,0-1.07.75.75,0,0,1,1.06,1.07Zm25.56,25.55a.75.75,0,1,1,0,1.07A.75.75,0,0,1,125.43,109.18Zm-2.64-2.46a.56.56,0,1,1,0,.8A.57.57,0,0,1,122.79,106.72ZM120.16,104a.56.56,0,1,1,0,.79A.56.56,0,0,1,120.16,104Zm-2.59-2.59a.56.56,0,0,1,.79,0,.57.57,0,0,1,0,.8.57.57,0,0,1-.79,0A.57.57,0,0,1,117.57,101.39Zm-2.73-2.73a.56.56,0,1,1,0,.79A.56.56,0,0,1,114.84,98.66Zm-5.32-5.32a.57.57,0,0,1,.79,0,.57.57,0,0,1,0,.8.56.56,0,0,1-.79,0A.57.57,0,0,1,109.52,93.34Zm-5.3-4.5a.56.56,0,1,1,.79,0A.56.56,0,0,1,104.22,88.84Zm2.67,1.87a.56.56,0,1,1,0,.79A.56.56,0,0,1,106.89,90.71Zm30.68,30.61a1.47,1.47,0,1,1,0-2.09A1.48,1.48,0,0,1,137.57,121.32ZM87,76.17a1.46,1.46,0,0,1-2.08,0A1.47,1.47,0,1,1,87,74.09,1.46,1.46,0,0,1,87,76.17Zm43.28,43.28a1.32,1.32,0,1,1,1.87,1.86,1.33,1.33,0,0,1-1.87,0A1.3,1.3,0,0,1,130.3,119.45ZM89.62,78.76a1.32,1.32,0,1,1,0-1.87A1.33,1.33,0,0,1,89.62,78.76Zm2.55,2.54a1.19,1.19,0,0,1-1.68-1.69,1.18,1.18,0,0,1,1.68,0A1.19,1.19,0,0,1,92.17,81.3Zm35.55,35.54a1.2,1.2,0,1,1,0,1.69A1.19,1.19,0,0,1,127.72,116.84Zm-2.53-2.49a1,1,0,1,1,1.42,1.43,1,1,0,0,1-1.42,0A1,1,0,0,1,125.19,114.35ZM94.71,83.87a1,1,0,1,1,0-1.42A1,1,0,0,1,94.71,83.87Zm2.47,2.46a.76.76,0,1,1,0-1.07A.77.77,0,0,1,97.18,86.33Zm25.55,25.55a.75.75,0,1,1,0,1.07A.77.77,0,0,1,122.73,111.88Zm-2.61-2.5a.57.57,0,1,1,0,.8A.57.57,0,0,1,120.12,109.38Zm-2.64-2.72a.56.56,0,1,1,0,.79A.56.56,0,0,1,117.48,106.66Zm-2.59-2.59a.56.56,0,1,1,0,.79A.56.56,0,0,1,114.89,104.07Zm-2.59-8a.54.54,0,0,1,.79,0,.56.56,0,1,1-.79,0Zm-.16,5.29a.56.56,0,1,1,0,.79A.56.56,0,0,1,112.14,101.32Zm-2.57-2.56a.56.56,0,0,1,.79,0,.54.54,0,0,1,0,.78.56.56,0,0,1-.79,0A.54.54,0,0,1,109.57,98.76ZM106.84,96a.54.54,0,0,1,.79,0,.56.56,0,1,1-.79,0Zm-5.3-4.51a.57.57,0,0,1,0-.79.57.57,0,0,1,.8,0,.56.56,0,0,1,0,.79A.57.57,0,0,1,101.54,91.52Zm2.67,1.87a.56.56,0,1,1,0,.79A.56.56,0,0,1,104.21,93.39ZM134.87,124a1.47,1.47,0,0,1-2.09,0,1.48,1.48,0,1,1,2.09,0ZM84.37,78.83a1.47,1.47,0,1,1,0-2.08A1.47,1.47,0,0,1,84.37,78.83Zm43.25,43.3a1.32,1.32,0,1,1,0,1.86A1.3,1.3,0,0,1,127.62,122.13ZM86.93,81.44a1.3,1.3,0,0,1-1.86,0,1.32,1.32,0,0,1,0-1.86,1.32,1.32,0,1,1,1.86,1.86ZM89.52,84a1.19,1.19,0,0,1-1.69,0,1.18,1.18,0,0,1,0-1.68A1.19,1.19,0,1,1,89.52,84Zm35.54,35.55a1.19,1.19,0,1,1,0,1.68A1.19,1.19,0,0,1,125.06,119.5Zm-2.51-2.5a1,1,0,0,1,1.42,0,1,1,0,0,1,0,1.42,1,1,0,1,1-1.42-1.42ZM92.07,86.51a1,1,0,0,1-1.43,0,1,1,0,0,1,0-1.42,1,1,0,0,1,1.43,0A1,1,0,0,1,92.07,86.51ZM94.51,89a.75.75,0,1,1-1.06-1.06A.75.75,0,0,1,94.51,89Zm25.55,25.56a.77.77,0,0,1,1.07,0,.75.75,0,1,1-1.07,0Zm-2.61-2.5a.57.57,0,1,1,0,.8A.57.57,0,0,1,117.45,112.05Zm-2.65-2.71a.56.56,0,1,1,0,.79A.56.56,0,0,1,114.8,109.34Zm-2.59-2.59a.56.56,0,1,1,0,.79A.56.56,0,0,1,112.21,106.75ZM109.48,104a.56.56,0,1,1,0,.79A.56.56,0,0,1,109.48,104Zm-2.59-2.59a.57.57,0,0,1,.8,0,.57.57,0,0,1,0,.79.57.57,0,0,1-.8,0A.56.56,0,0,1,106.89,101.43Zm-2.73-2.73a.56.56,0,0,1,.79,0,.57.57,0,0,1,0,.8.57.57,0,0,1-.79,0A.57.57,0,0,1,104.16,98.7Zm-5.29-4.5a.56.56,0,0,1,.79-.79.56.56,0,1,1-.79.79Zm2.66,1.87a.56.56,0,1,1,0,.79A.56.56,0,0,1,101.53,96.07Zm30.68,30.61a1.47,1.47,0,0,1-2.08-2.09,1.47,1.47,0,1,1,2.08,2.09ZM81.63,81.57a1.47,1.47,0,1,1,0-2.09A1.48,1.48,0,0,1,81.63,81.57Zm43.31,43.24a1.32,1.32,0,1,1,0,1.87A1.32,1.32,0,0,1,124.94,124.81ZM84.25,84.13a1.32,1.32,0,1,1,0-1.87A1.32,1.32,0,0,1,84.25,84.13Zm2.54,2.55a1.19,1.19,0,1,1,0-1.69A1.2,1.2,0,0,1,86.79,86.68Zm35.55,35.54a1.19,1.19,0,1,1,0,1.69A1.2,1.2,0,0,1,122.34,122.22Zm-2.5-2.5a1,1,0,0,1,1.42,0,1,1,0,1,1-1.42,1.42A1,1,0,0,1,119.84,119.72ZM89.35,89.23a1,1,0,1,1,0-1.42A1,1,0,0,1,89.35,89.23Zm2.45,2.48a.76.76,0,1,1,0-1.07A.77.77,0,0,1,91.8,91.71Zm25.55,25.55a.77.77,0,0,1,1.07,0,.75.75,0,1,1-1.07,0Zm-2.56-2.54a.57.57,0,1,1,0,.8A.55.55,0,0,1,114.79,114.72Zm-2.67-2.7a.56.56,0,1,1,0,.79A.56.56,0,0,1,112.12,112Zm-2.59-2.59a.56.56,0,1,1,0,.79A.56.56,0,0,1,109.53,109.43Zm-2.73-2.73a.56.56,0,0,1,.79,0,.54.54,0,0,1,0,.79.56.56,0,1,1-.79-.79Zm-2.59-2.59a.57.57,0,0,1,.8,0,.57.57,0,0,1,0,.79.57.57,0,0,1-.8,0A.57.57,0,0,1,104.21,104.11Zm-2.73-2.73a.57.57,0,0,1,.8,0,.56.56,0,0,1,0,.79.57.57,0,0,1-.8,0A.57.57,0,0,1,101.48,101.38Zm-5.29-4.51a.54.54,0,0,1,0-.78.56.56,0,0,1,.79,0,.54.54,0,0,1,0,.78A.56.56,0,0,1,96.19,96.87Zm2.66,1.88a.56.56,0,1,1,0,.79A.56.56,0,0,1,98.85,98.75Zm30.63,30.66a1.47,1.47,0,1,1-2.08-2.09,1.47,1.47,0,0,1,2.08,2.09ZM79,84.22a1.47,1.47,0,1,1,0-2.09A1.48,1.48,0,0,1,79,84.22Zm43.27,43.27a1.32,1.32,0,1,1,0,1.87A1.33,1.33,0,0,1,122.25,127.49ZM81.57,86.81a1.32,1.32,0,0,1-1.86,0A1.32,1.32,0,1,1,81.57,85,1.32,1.32,0,0,1,81.57,86.81Zm2.56,2.53a1.19,1.19,0,1,1,0-1.68A1.19,1.19,0,0,1,84.13,89.34Zm35.54,35.55a1.19,1.19,0,1,1,0,1.68A1.19,1.19,0,0,1,119.67,124.89Zm-2.52-2.49a1,1,0,1,1,0,1.42A1,1,0,0,1,117.15,122.4ZM86.66,91.91a1,1,0,1,1,0-1.42A1,1,0,0,1,86.66,91.91Zm2.46,2.47a.75.75,0,1,1,0-1.06A.75.75,0,0,1,89.12,94.38Zm25.55,25.56a.75.75,0,1,1,0,1.06A.75.75,0,0,1,114.67,119.94Zm-2.55-2.56a.59.59,0,0,1,.8,0,.57.57,0,0,1,0,.8.55.55,0,0,1-.8,0A.57.57,0,0,1,112.12,117.38Zm-2.68-2.68a.56.56,0,1,1,0,.79A.56.56,0,0,1,109.44,114.7Zm-2.59-2.59a.57.57,0,0,1,.8,0,.57.57,0,0,1,0,.79.57.57,0,0,1-.8,0A.56.56,0,0,1,106.85,112.11Zm-2.73-2.73a.57.57,0,0,1,.8,0,.57.57,0,0,1,0,.79.57.57,0,0,1-.8,0A.57.57,0,0,1,104.12,109.38Zm-2.58-2.59a.56.56,0,0,1,.79,0,.57.57,0,0,1,0,.79.56.56,0,0,1-.79-.79Zm-2.73-2.73a.56.56,0,1,1,0,.79A.56.56,0,0,1,98.81,104.06Zm-5.3-4.51a.56.56,0,1,1,.79,0A.56.56,0,0,1,93.51,99.55Zm2.66,1.88a.56.56,0,1,1,0,.79A.56.56,0,0,1,96.17,101.43Zm30.66,30.63a1.47,1.47,0,1,1,0-2.08A1.47,1.47,0,0,1,126.83,132.06ZM76.31,86.89a1.47,1.47,0,1,1,0-2.08A1.47,1.47,0,0,1,76.31,86.89Zm47.84,47.85a1.47,1.47,0,0,1-2.08-2.09,1.47,1.47,0,1,1,2.08,2.09ZM78.9,89.48a1.32,1.32,0,0,1-1.86,0,1.32,1.32,0,0,1,1.86-1.86A1.32,1.32,0,0,1,78.9,89.48Zm40.68,40.68a1.32,1.32,0,1,1,0,1.87A1.33,1.33,0,0,1,119.58,130.16Zm-2.6-2.58a1.19,1.19,0,1,1,0,1.68A1.18,1.18,0,0,1,117,127.58Zm-2.5-2.51a1,1,0,1,1,0,1.42A1,1,0,0,1,114.48,125.07Zm-1.42-2.45a.75.75,0,1,1-1.07,0A.75.75,0,0,1,113.06,122.62Zm-11.61-10.56a.56.56,0,1,1,0,.79A.56.56,0,0,1,101.45,112.06Zm-9.83-9.83a.56.56,0,1,1,0-.79A.56.56,0,0,1,91.62,102.23Zm2.66,2.67a.57.57,0,0,1-.79,0,.57.57,0,0,1,0-.8.56.56,0,0,1,.79,0A.57.57,0,0,1,94.28,104.9Zm5.37,4.57a.56.56,0,1,1-.79,0A.56.56,0,0,1,99.65,109.47Zm-2.73-1.94a.56.56,0,1,1,0-.79A.56.56,0,0,1,96.92,107.53ZM85.38,96a.74.74,0,0,1,1.06,0,.75.75,0,0,1,0,1.06A.75.75,0,0,1,85.38,96Zm-5.63-4a1.19,1.19,0,1,1,1.68,0A1.18,1.18,0,0,1,79.75,92Zm2.83,1.13a1,1,0,1,1,0,1.42A1,1,0,0,1,82.58,93.16Zm24.62,30a3.81,3.81,0,1,1,0-5.39A3.79,3.79,0,0,1,107.2,123.16Zm9.71,9.68a1.32,1.32,0,1,1,0,1.86A1.3,1.3,0,0,1,116.91,132.84Zm-2.6-2.57a1.21,1.21,0,0,1,1.69,0,1.19,1.19,0,0,1,0,1.69,1.2,1.2,0,0,1-1.69-1.69Zm-5-3.93a.75.75,0,1,1,1.06,0A.75.75,0,0,1,109.34,126.34Zm2.48,1.39a1,1,0,0,1,1.42,0,1,1,0,0,1,0,1.42,1,1,0,0,1-1.42-1.42Zm9.66,9.68a1.47,1.47,0,0,1-2.09,0,1.48,1.48,0,0,1,2.09-2.09A1.47,1.47,0,0,1,121.48,137.41Zm-2.71,2.71a1.47,1.47,0,1,1,0-2.08A1.47,1.47,0,0,1,118.77,140.12ZM73.5,94.88a1.32,1.32,0,1,1,0-1.87A1.33,1.33,0,0,1,73.5,94.88Zm2.58,2.51a1.2,1.2,0,1,1,0-1.69A1.21,1.21,0,0,1,76.08,97.39ZM78.59,100a1,1,0,0,1-1.42,0,1,1,0,0,1,1.42-1.42A1,1,0,0,1,78.59,100Zm2.49,2.47a.75.75,0,1,1,0-1.06A.75.75,0,0,1,81.08,102.45Zm5.16,5.17a.57.57,0,1,1,0-.8A.57.57,0,0,1,86.24,107.62Zm2.65,2.66a.57.57,0,0,1-.79-.81.56.56,0,0,1,.79,0A.56.56,0,0,1,88.89,110.28Zm2.66,2.65a.57.57,0,1,1,0-.8A.57.57,0,0,1,91.55,112.93Zm2.65,2.65a.57.57,0,1,1,0-.8A.57.57,0,0,1,94.2,115.58Zm2.65,2.65a.54.54,0,0,1-.79,0,.55.55,0,0,1,0-.8.57.57,0,0,1,.79,0A.57.57,0,0,1,96.85,118.23Zm10.85,10.84a.75.75,0,1,1,0-1.06A.75.75,0,0,1,107.7,129.07Zm2.8,2.82a1,1,0,1,1,0-1.42A1,1,0,0,1,110.5,131.89Zm5.54,3.67a1.32,1.32,0,1,1-1.86,1.87,1.32,1.32,0,0,1,1.86-1.87Zm-2.73-.94a1.19,1.19,0,1,1,0-1.69A1.2,1.2,0,0,1,113.31,134.62ZM68.84,90.19a1.47,1.47,0,1,1,0,2.09A1.48,1.48,0,0,1,68.84,90.19Zm7.38,2a1.32,1.32,0,0,1-1.86-1.86,1.32,1.32,0,0,1,1.86,0A1.3,1.3,0,0,1,76.22,92.15Zm2.55,2.57a1.19,1.19,0,1,1,0-1.68A1.19,1.19,0,0,1,78.77,94.72Zm2.57,2.52a1,1,0,0,1-1.43,0,1,1,0,0,1,0-1.42,1,1,0,0,1,1.43,0A1,1,0,0,1,81.34,97.24Zm2.45,2.48a.76.76,0,1,1,0-1.07A.77.77,0,0,1,83.79,99.72Zm5.15,5.19a.56.56,0,1,1,0-.79A.56.56,0,0,1,88.94,104.91Zm2.67,2.67a.57.57,0,0,1-.8-.8.57.57,0,0,1,.8.8Zm2.63,2.63a.56.56,0,1,1,0-.79A.56.56,0,0,1,94.24,110.21Zm5.32,4.52a.57.57,0,0,1,0,.8.57.57,0,0,1-.79,0,.57.57,0,0,1,0-.8A.57.57,0,0,1,99.56,114.73ZM97,112.94a.56.56,0,1,1,0-.79A.56.56,0,0,1,97,112.94ZM71.55,87.48a1.47,1.47,0,0,1,2.09,0,1.48,1.48,0,1,1-2.09,2.09A1.47,1.47,0,0,1,71.55,87.48Zm-3.28,7.45a1.47,1.47,0,1,1,0-2.09A1.48,1.48,0,0,1,68.27,94.93Zm43.29,43.26a1.32,1.32,0,1,1,0,1.86A1.32,1.32,0,0,1,111.56,138.19ZM70.87,97.5a1.3,1.3,0,0,1-1.86,0,1.32,1.32,0,0,1,0-1.86,1.32,1.32,0,0,1,1.86,1.86Zm2.55,2.55a1.2,1.2,0,1,1,0-1.69A1.19,1.19,0,0,1,73.42,100.05ZM109,135.59a1.19,1.19,0,0,1,1.68,1.69,1.18,1.18,0,0,1-1.68,0A1.19,1.19,0,0,1,109,135.59Zm-2.52-2.49a1,1,0,1,1,0,1.42A1,1,0,0,1,106.45,133.1ZM76,102.61a1,1,0,1,1,0-1.42A1,1,0,0,1,76,102.61Zm2.46,2.47a.75.75,0,1,1,0-1.06A.74.74,0,0,1,78.42,105.08Zm2.65,2.66a.75.75,0,0,1-1.06,0,.77.77,0,0,1,0-1.07.75.75,0,0,1,1.06,1.07Zm2.66,2.65a.76.76,0,1,1,0-1.07A.77.77,0,0,1,83.73,110.39Zm2.66,2.66a.75.75,0,1,1,0-1.06A.74.74,0,0,1,86.39,113.05ZM89,115.71a.75.75,0,0,1-1.06,0,.77.77,0,0,1,0-1.07A.75.75,0,0,1,89,115.71Zm2.68,2.67a.77.77,0,0,1-1.07,0,.75.75,0,1,1,1.07,0Zm2.67,2.67a.76.76,0,1,1,0-1.07A.77.77,0,0,1,94.39,121.05Zm2.66,2.66a.75.75,0,0,1-1.07,0,.76.76,0,1,1,1.07,0Zm2.63,2.63a.75.75,0,0,1-1.06-1.06.75.75,0,0,1,1.06,0A.74.74,0,0,1,99.68,126.34Zm5.36,4.3a.75.75,0,0,1,0,1.06.75.75,0,1,1,0-1.06ZM102.35,129a.77.77,0,0,1-1.07,0,.75.75,0,0,1,0-1.06.77.77,0,0,1,1.07,0A.75.75,0,0,1,102.35,129Zm13.77,13.76a1.47,1.47,0,1,1,0-2.08A1.47,1.47,0,0,1,116.12,142.77ZM65.58,97.63a1.48,1.48,0,1,1-2.09-2.09,1.47,1.47,0,0,1,2.09,0A1.49,1.49,0,0,1,65.58,97.63Zm43.27,43.27a1.32,1.32,0,1,1,1.86,1.87,1.32,1.32,0,0,1-1.86-1.87ZM68.16,100.21a1.3,1.3,0,0,1-1.86,0,1.32,1.32,0,0,1,1.86-1.86A1.3,1.3,0,0,1,68.16,100.21Zm2.53,2.57a1.19,1.19,0,0,1-1.69,0,1.18,1.18,0,0,1,0-1.68,1.19,1.19,0,1,1,1.69,1.68Zm35.54,35.55a1.19,1.19,0,0,1,1.69,0,1.2,1.2,0,0,1-1.69,1.69A1.19,1.19,0,0,1,106.23,138.33Zm-5.18-5.18a1,1,0,1,1,0,1.42A1,1,0,0,1,101.05,133.15Zm-2.64-2.64a1,1,0,1,1,0,1.42A1,1,0,0,1,98.41,130.51Zm-2.67-2.67a1,1,0,0,1,1.42,0,1,1,0,0,1,0,1.42,1,1,0,1,1-1.42-1.42Zm-2.65-2.66a1,1,0,1,1,1.42,1.42,1,1,0,0,1-1.42-1.42Zm-2.67-2.67a1,1,0,1,1,1.41,1.43,1,1,0,0,1-1.41,0A1,1,0,0,1,90.42,122.51Zm-2.65-2.64a1,1,0,1,1,0,1.42A1,1,0,0,1,87.77,119.87Zm-2.66-2.67a1,1,0,0,1,1.42,1.42,1,1,0,0,1-1.42-1.42Zm-5.34-5.33a1,1,0,1,1,0,1.41A1,1,0,0,1,79.77,111.87Zm-2.65-2.65a1,1,0,0,1,1.42,0,1,1,0,1,1-1.42,0Zm6.76,5.33a1,1,0,1,1-1.42,0A1,1,0,0,1,83.88,114.55Zm-9.4-8a1,1,0,1,1,0,1.41A1,1,0,0,1,74.48,106.58Zm30.69,29.22a1,1,0,1,1-1.43,0A1,1,0,0,1,105.17,135.8ZM73.26,105.31a1,1,0,0,1-1.42,0,1,1,0,0,1,0-1.42,1,1,0,1,1,1.42,1.42Zm40.16,40.16a1.48,1.48,0,1,1,0-2.09A1.47,1.47,0,0,1,113.42,145.47Zm-50.59-45.1a1.47,1.47,0,1,1,0-2.09A1.48,1.48,0,0,1,62.83,100.37Zm43.29,43.25a1.32,1.32,0,1,1,0,1.87A1.33,1.33,0,0,1,106.12,143.62ZM65.44,102.94a1.32,1.32,0,1,1,0-1.87A1.32,1.32,0,0,1,65.44,102.94ZM68,105.52a1.2,1.2,0,0,1-1.68,0A1.19,1.19,0,0,1,68,103.84,1.2,1.2,0,0,1,68,105.52Zm2.67,2.67a1.2,1.2,0,0,1-1.68,0,1.19,1.19,0,1,1,1.68-1.68A1.2,1.2,0,0,1,70.62,108.19Zm2.66,2.66a1.19,1.19,0,0,1-1.69,0,1.2,1.2,0,0,1,1.69-1.69A1.19,1.19,0,0,1,73.28,110.85Zm2.65,2.65a1.2,1.2,0,1,1,0-1.69A1.21,1.21,0,0,1,75.93,113.5Zm2.65,2.64a1.2,1.2,0,0,1-1.69-1.69,1.2,1.2,0,0,1,1.69,1.69Zm2.7,2.71a1.19,1.19,0,0,1-1.69,0,1.2,1.2,0,0,1,1.69-1.69A1.19,1.19,0,0,1,81.28,118.85Zm2.63,2.63a1.2,1.2,0,1,1,0-1.69A1.21,1.21,0,0,1,83.91,121.48Zm2.69,2.7a1.21,1.21,0,0,1-1.68,0,1.19,1.19,0,0,1,0-1.69,1.18,1.18,0,0,1,1.68,0A1.19,1.19,0,0,1,86.6,124.18Zm2.65,2.64a1.19,1.19,0,1,1,0-1.69A1.2,1.2,0,0,1,89.25,126.82Zm2.66,2.65a1.19,1.19,0,0,1-1.69,0,1.18,1.18,0,0,1,0-1.68,1.19,1.19,0,1,1,1.69,1.68Zm2.65,2.66a1.19,1.19,0,1,1,0-1.68A1.18,1.18,0,0,1,94.56,132.13Zm2.66,2.65a1.19,1.19,0,0,1-1.69-1.68,1.21,1.21,0,0,1,1.69,0A1.2,1.2,0,0,1,97.22,134.78Zm2.67,2.67a1.19,1.19,0,0,1-1.69,0,1.18,1.18,0,0,1,0-1.68,1.21,1.21,0,0,1,1.69,0A1.2,1.2,0,0,1,99.89,137.45Zm5.29,3.62a1.19,1.19,0,1,1-1.68,0A1.18,1.18,0,0,1,105.18,141.07Zm-2.64-1a1.2,1.2,0,1,1,0-1.69A1.19,1.19,0,0,1,102.54,140.11Zm8.14,8.1a1.47,1.47,0,0,1-2.09,0,1.48,1.48,0,1,1,2.09,0ZM60.21,103a1.47,1.47,0,1,1,0-2.09A1.48,1.48,0,0,1,60.21,103Zm43.24,43.31a1.32,1.32,0,1,1,0,1.86A1.32,1.32,0,0,1,103.45,146.3Zm-2.65-2.66a1.32,1.32,0,1,1,0,1.87A1.32,1.32,0,0,1,100.8,143.64ZM73.33,116.12a1.19,1.19,0,1,1,0-1.68A1.19,1.19,0,0,1,73.33,116.12ZM76,118.77a1.19,1.19,0,0,1-1.69,0,1.18,1.18,0,0,1,0-1.68A1.19,1.19,0,0,1,76,118.77Zm2.67,2.68a1.21,1.21,0,0,1-1.69,0,1.19,1.19,0,0,1,1.69-1.68A1.18,1.18,0,0,1,78.65,121.45Zm2.67,2.67a1.18,1.18,0,0,1-1.68,0,1.19,1.19,0,1,1,1.68,0Zm5.32,5.32a1.19,1.19,0,0,1-1.69,0,1.21,1.21,0,0,1,0-1.69,1.19,1.19,0,0,1,1.69,0A1.21,1.21,0,0,1,86.64,129.44Zm2.66,2.66a1.19,1.19,0,1,1,0-1.68A1.18,1.18,0,0,1,89.3,132.1ZM92,134.75a1.21,1.21,0,0,1-1.69,0A1.2,1.2,0,0,1,92,133.06,1.21,1.21,0,0,1,92,134.75Zm2.65,2.65a1.2,1.2,0,1,1,0-1.69A1.21,1.21,0,0,1,94.6,137.4ZM82.25,126.76a1.19,1.19,0,0,1,1.69-1.68,1.18,1.18,0,0,1,0,1.68A1.19,1.19,0,0,1,82.25,126.76ZM99.9,141a1.19,1.19,0,1,1-1.68,0A1.18,1.18,0,0,1,99.9,141Zm-2.64-1a1.19,1.19,0,0,1-1.69,0,1.21,1.21,0,0,1,0-1.69,1.19,1.19,0,0,1,1.69,0A1.21,1.21,0,0,1,97.26,140.06ZM68.87,111.71a1.32,1.32,0,1,1,0,1.87A1.32,1.32,0,0,1,68.87,111.71Zm-2.64-2.64a1.32,1.32,0,1,1,0,1.87A1.33,1.33,0,0,1,66.23,109.07Zm-5.33-3.46a1.32,1.32,0,1,1,1.87,0A1.32,1.32,0,0,1,60.9,105.61Zm2.67.8a1.32,1.32,0,1,1,0,1.86A1.3,1.3,0,0,1,63.57,106.41Zm44.49,44.42a1.47,1.47,0,1,1,0-2.08A1.47,1.47,0,0,1,108.06,150.83ZM57.5,105.7a1.47,1.47,0,1,1,0-2.08A1.48,1.48,0,0,1,57.5,105.7Zm2.69,2.69a1.47,1.47,0,1,1,0-2.08A1.47,1.47,0,0,1,60.19,108.39Zm2.67,2.68a1.47,1.47,0,1,1,0-2.09A1.48,1.48,0,0,1,62.86,111.07Zm2.67,2.66a1.47,1.47,0,0,1-2.08-2.08,1.48,1.48,0,0,1,2.08,0A1.46,1.46,0,0,1,65.53,113.73Zm2.64,2.64a1.47,1.47,0,1,1,0-2.08A1.47,1.47,0,0,1,68.17,116.37ZM70.8,119a1.47,1.47,0,1,1,0-2.09A1.48,1.48,0,0,1,70.8,119Zm2.68,2.68a1.47,1.47,0,1,1-2.08-2.09,1.47,1.47,0,0,1,2.08,2.09Zm2.67,2.67a1.47,1.47,0,0,1-2.08-2.09,1.47,1.47,0,0,1,2.08,2.09ZM78.8,127a1.48,1.48,0,1,1,0-2.09A1.47,1.47,0,0,1,78.8,127Zm2.66,2.66a1.48,1.48,0,0,1-2.08,0,1.47,1.47,0,1,1,2.08,0Zm2.67,2.67a1.47,1.47,0,1,1,0-2.09A1.48,1.48,0,0,1,84.13,132.34ZM86.79,135a1.47,1.47,0,1,1,0-2.09A1.48,1.48,0,0,1,86.79,135Zm2.65,2.65a1.48,1.48,0,1,1,0-2.09A1.47,1.47,0,0,1,89.44,137.65Zm2.66,2.65A1.48,1.48,0,0,1,90,138.21a1.48,1.48,0,1,1,2.09,2.09ZM94.75,143a1.47,1.47,0,1,1,0-2.09A1.48,1.48,0,0,1,94.75,143Zm2.67,2.66a1.48,1.48,0,0,1-2.09-2.09,1.48,1.48,0,1,1,2.09,2.09Zm2.64,2.65A1.47,1.47,0,1,1,98,146.18a1.47,1.47,0,0,1,2.08,2.09Zm2.67,2.67a1.48,1.48,0,0,1-2.09-2.09,1.48,1.48,0,1,1,2.09,2.09Zm2.65,2.64a1.47,1.47,0,1,1,0-2.08A1.47,1.47,0,0,1,105.38,153.58ZM57.63,111.16a1.63,1.63,0,0,1-2.31-2.31,1.65,1.65,0,0,1,2.31,0A1.63,1.63,0,0,1,57.63,111.16Zm2.66,2.66a1.63,1.63,0,1,1,0-2.31A1.65,1.65,0,0,1,60.29,113.82ZM63,116.48a1.63,1.63,0,0,1-2.31-2.31A1.63,1.63,0,0,1,63,116.48Zm2.65,2.66a1.63,1.63,0,1,1,0-2.31A1.62,1.62,0,0,1,65.6,119.14Zm2.66,2.66a1.63,1.63,0,0,1-2.3-2.31,1.63,1.63,0,0,1,2.3,2.31Zm2.66,2.66a1.63,1.63,0,1,1-2.31-2.31,1.63,1.63,0,0,1,2.31,2.31Zm2.66,2.65a1.62,1.62,0,0,1-2.3,0,1.6,1.6,0,0,1,0-2.3,1.63,1.63,0,0,1,2.3,2.3Zm2.66,2.66a1.63,1.63,0,1,1,0-2.3A1.63,1.63,0,0,1,76.24,129.77Zm2.66,2.66a1.63,1.63,0,0,1-2.31-2.31,1.65,1.65,0,0,1,2.31,0A1.63,1.63,0,0,1,78.9,132.43Zm2.66,2.66a1.63,1.63,0,1,1,0-2.3A1.63,1.63,0,0,1,81.56,135.09Zm2.66,2.66a1.63,1.63,0,0,1-2.31-2.31,1.63,1.63,0,0,1,2.31,2.31Zm2.66,2.66a1.63,1.63,0,0,1-2.31-2.31,1.63,1.63,0,0,1,2.31,2.31Zm2.65,2.66a1.63,1.63,0,1,1,0-2.31A1.62,1.62,0,0,1,89.53,143.07Zm2.66,2.65a1.61,1.61,0,0,1-2.31,0,1.63,1.63,0,0,1,2.31-2.3A1.62,1.62,0,0,1,92.19,145.72Zm2.66,2.67a1.63,1.63,0,1,1,0-2.31A1.62,1.62,0,0,1,94.85,148.39Zm2.66,2.66a1.63,1.63,0,1,1,0-2.31A1.63,1.63,0,0,1,97.51,151.05Zm2.66,2.66a1.63,1.63,0,0,1-2.31-2.31,1.63,1.63,0,0,1,2.31,2.31Zm2.66,2.65a1.63,1.63,0,1,1,0-2.3A1.63,1.63,0,0,1,102.83,156.36Zm55.88-50.69a1.63,1.63,0,0,1-1.86-2.62,1.62,1.62,0,0,1,1.9-.3,2.23,2.23,0,0,1-.35-1.48l-.12-.12a2.33,2.33,0,0,1-1.49-.35,1.62,1.62,0,1,1-.7-.71,2.3,2.3,0,0,1-.35-1.48l-.13-.13a2.3,2.3,0,0,1-1.48-.35,1.63,1.63,0,0,1-2.6,1.91,1.63,1.63,0,0,1,0-2.31,1.65,1.65,0,0,1,1.9-.3,2.28,2.28,0,0,1-.37-1.49l-.1-.11a2.34,2.34,0,0,1-1.49-.36,1.63,1.63,0,1,1-.7-.7,2.31,2.31,0,0,1-.36-1.48l-.11-.12a2.29,2.29,0,0,1-1.48-.35,1.65,1.65,0,0,1-.3,1.9,1.63,1.63,0,1,1-.4-2.6,2.34,2.34,0,0,1-.36-1.49l-.12-.12a2.35,2.35,0,0,1-1.48-.35,1.65,1.65,0,0,1-.3,1.9,1.63,1.63,0,0,1-2.31,0,1.63,1.63,0,0,1,1.9-2.6,2.34,2.34,0,0,1-.36-1.49l-.11-.13a2.28,2.28,0,0,1-1.48-.34,1.65,1.65,0,1,1-.71-.7,2.35,2.35,0,0,1-.36-1.5l-.11-.11a2.3,2.3,0,0,1-1.48-.35,1.63,1.63,0,0,1-2.61,1.9,1.63,1.63,0,0,1,1.9-2.6,2.39,2.39,0,0,1-.35-1.49l-.11-.11a2.34,2.34,0,0,1-1.49-.36,1.63,1.63,0,1,1-.7-.7,2.26,2.26,0,0,1-.35-1.49L137,79.9a2.3,2.3,0,0,1-1.51-.36,1.63,1.63,0,1,1-2.61-.42,1.63,1.63,0,0,1,1.92-.29,2.27,2.27,0,0,1-.35-1.47l-.15-.15a2.36,2.36,0,0,1-1.48-.35,1.63,1.63,0,0,1-2.6,1.91,1.63,1.63,0,0,1,1.9-2.61,2.28,2.28,0,0,1-.37-1.49l-.11-.12a2.36,2.36,0,0,1-1.48-.35,1.63,1.63,0,0,1-2.6,1.91,1.63,1.63,0,0,1,1.9-2.61,2.28,2.28,0,0,1-.36-1.49l-.12-.12a2.3,2.3,0,0,1-1.48-.35,1.63,1.63,0,0,1-.29,1.91,1.65,1.65,0,0,1-2.31,0,1.63,1.63,0,0,1,0-2.31,1.65,1.65,0,0,1,1.9-.3,2.34,2.34,0,0,1-.36-1.49l-.11-.1a2.31,2.31,0,0,1-1.48-.36,1.63,1.63,0,1,1-2.61-.41,1.63,1.63,0,0,1,1.9-.29,2.39,2.39,0,0,1-.35-1.49l-.11-.11a2.34,2.34,0,0,1-1.49-.36,1.65,1.65,0,0,1-.3,1.9,1.63,1.63,0,0,1-2.31,0,1.63,1.63,0,0,1,1.91-2.6,2.36,2.36,0,0,1-.35-1.48l-.14-.14a2.24,2.24,0,0,1-1.48-.35,1.62,1.62,0,1,1-.7-.7,2.31,2.31,0,0,1-.36-1.49l-.07-.07a2.27,2.27,0,0,1-1.51-.37,1.64,1.64,0,0,1-.31,1.88,1.63,1.63,0,1,1-.38-2.59,2.3,2.3,0,0,1-.34-1.46l-.15-.15a2.34,2.34,0,0,1-1.49-.36,1.63,1.63,0,1,1-.7-.7,2.32,2.32,0,0,1-.36-1.49l-.12-.12a2.36,2.36,0,0,1-1.48-.35,1.63,1.63,0,1,1-.71-.7,2.35,2.35,0,0,1-.36-1.5l-.09-.09A2.29,2.29,0,0,1,109,53a1.63,1.63,0,1,1-.77-.77,2.32,2.32,0,0,1-.33-1.49l-.1-.09a2.32,2.32,0,0,1-1.49-.33,1.63,1.63,0,1,1-2.8-.18,2.32,2.32,0,0,1-1.6.48l-.2.2a2.37,2.37,0,0,1-.47,1.59,1.63,1.63,0,0,1,2.09.18,1.63,1.63,0,1,1-2.51.24,2.3,2.3,0,0,1-1.6.48l-.19.19a2.35,2.35,0,0,1-.47,1.59,1.62,1.62,0,1,1-.42.42,2.34,2.34,0,0,1-1.6.48l-.21.21a2.3,2.3,0,0,1-.46,1.58,1.61,1.61,0,1,1-.42.42,2.25,2.25,0,0,1-1.61.48l-.19.2a2.3,2.3,0,0,1-.46,1.58,1.61,1.61,0,1,1-.42.42,2.31,2.31,0,0,1-1.6.49l-.15.14a2.29,2.29,0,0,1-.49,1.61,1.63,1.63,0,1,1-.42.41,2.33,2.33,0,0,1-1.58.47l-.23.23a2.32,2.32,0,0,1-.47,1.59,1.61,1.61,0,0,1,2.08.18,1.63,1.63,0,1,1-2.5.24,2.34,2.34,0,0,1-1.6.48l-.16.16a2.33,2.33,0,0,1-.49,1.61,1.65,1.65,0,1,1-.41.41,2.37,2.37,0,0,1-1.59.47l-.22.22a2.37,2.37,0,0,1-.47,1.59,1.63,1.63,0,1,1-.42.42,2.35,2.35,0,0,1-1.6.48l-.17.17a2.35,2.35,0,0,1-.48,1.6,1.63,1.63,0,1,1-.24,2.5,1.61,1.61,0,0,1-.18-2.08,2.37,2.37,0,0,1-1.59.47l-.21.21a2.27,2.27,0,0,1-.47,1.59,1.61,1.61,0,0,1,2.07.19,1.63,1.63,0,1,1-2.49.23,2.28,2.28,0,0,1-1.59.47l-.21.21a2.27,2.27,0,0,1-.47,1.59,1.63,1.63,0,1,1-.42.42,2.26,2.26,0,0,1-1.6.47l-.18.19a2.35,2.35,0,0,1-.48,1.6,1.63,1.63,0,1,1-.41.41,2.35,2.35,0,0,1-1.6.48l-.17.17A2.32,2.32,0,0,1,69,84.56a1.63,1.63,0,1,1-.42.41,2.29,2.29,0,0,1-1.58.47l-.22.22a2.35,2.35,0,0,1-.48,1.6,1.63,1.63,0,1,1-.41.41,2.35,2.35,0,0,1-1.6.48l-.17.17a2.32,2.32,0,0,1-.49,1.61,1.62,1.62,0,1,1-.42.41,2.24,2.24,0,0,1-1.58.47l-.2.2a2.32,2.32,0,0,1-.48,1.6,1.64,1.64,0,1,1-.42.42A2.3,2.3,0,0,1,59,93.5l-.24.25a2.33,2.33,0,0,1-.47,1.57,1.64,1.64,0,1,1-.4.42,2.36,2.36,0,0,1-1.62.49l-.15.15A2.35,2.35,0,0,1,55.6,98a1.63,1.63,0,1,1-.42.42,2.32,2.32,0,0,1-1.59.48l-.2.19a2.35,2.35,0,0,1-.48,1.6A1.63,1.63,0,0,1,55,103.16a1.63,1.63,0,0,1-2.49-2.08,2.35,2.35,0,0,1-1.6.48l-.21.21a2.38,2.38,0,0,1-.47,1.59,1.63,1.63,0,1,1,.09,2.72,2.36,2.36,0,0,1,.39,1.58l.11.11a2.28,2.28,0,0,1,1.59.4,1.63,1.63,0,0,1,2.57-2,1.63,1.63,0,0,1-2,2.56,2.37,2.37,0,0,1,.39,1.59l.13.13A2.32,2.32,0,0,1,56,112.94l.21.21a2.32,2.32,0,0,1,2.46,2.47l.23.23a2.31,2.31,0,0,1,2.46,2.46l.16.15a2.33,2.33,0,0,1,1.79.67,2.36,2.36,0,0,1,.67,1.79l.21.22a2.31,2.31,0,0,1,2.46,2.46l.2.19a2.32,2.32,0,0,1,2.46,2.46l.18.18a2.32,2.32,0,0,1,2.46,2.47l.2.19a2.33,2.33,0,0,1,1.79.68,2.3,2.3,0,0,1,.67,1.78l.2.2a2.32,2.32,0,0,1,2.46,2.46l.23.24A2.32,2.32,0,0,1,80,136.91l.17.18a2.32,2.32,0,0,1,1.79.67,2.29,2.29,0,0,1,.67,1.79l.19.19a2.31,2.31,0,0,1,1.79.67,2.28,2.28,0,0,1,.67,1.78l.2.2a2.32,2.32,0,0,1,2.46,2.46l.2.21a2.29,2.29,0,0,1,2.46,2.45l.21.21a2.3,2.3,0,0,1,1.78.67,2.33,2.33,0,0,1,.68,1.79l.19.2a2.31,2.31,0,0,1,2.46,2.45l.19.19a2.37,2.37,0,0,1,1.79.68,2.31,2.31,0,0,1,.67,1.79l.21.21a2.31,2.31,0,0,1,2.46,2.46l.2.2a2.31,2.31,0,0,1,2.46,2.46l.06.05a2.62,2.62,0,0,1,.79,0h0a2.35,2.35,0,0,1,.34-1.56,1.63,1.63,0,1,1,.44-2.61,1.62,1.62,0,0,1,.3,1.88,2.36,2.36,0,0,1,1.53-.32l.09-.09a2.3,2.3,0,0,1,.34-1.55,1.63,1.63,0,1,1,.72-.72,2.31,2.31,0,0,1,1.55-.34l.08-.08a2.29,2.29,0,0,1,.34-1.54,1.64,1.64,0,1,1,.71-.72,2.22,2.22,0,0,1,1.56-.34l0,0a2.29,2.29,0,0,1,.35-1.58,1.63,1.63,0,1,1,.73-.7,2.3,2.3,0,0,1,1.53-.33l.12-.12a2.32,2.32,0,0,1,.33-1.54,1.63,1.63,0,1,1,.72-.72,2.28,2.28,0,0,1,1.56-.35l.08-.08a2.29,2.29,0,0,1,.33-1.54,1.63,1.63,0,0,1-1.9-2.6,1.65,1.65,0,0,1,2.31,0,1.62,1.62,0,0,1,.3,1.88,2.36,2.36,0,0,1,1.57-.34l0-.06a2.31,2.31,0,0,1,.34-1.55,1.64,1.64,0,0,1-1.89-.31,1.63,1.63,0,1,1,2.61-.41,2.31,2.31,0,0,1,1.55-.34l.1-.1a2.31,2.31,0,0,1,.33-1.53,1.64,1.64,0,1,1,.71-.73,2.35,2.35,0,0,1,1.56-.35l.06-.05a2.31,2.31,0,0,1,.34-1.55,1.63,1.63,0,1,1,.72-.72,2.3,2.3,0,0,1,1.55-.34l.06-.07a2.26,2.26,0,0,1,.35-1.55,1.63,1.63,0,1,1,.72-.72,2.27,2.27,0,0,1,1.54-.33l.08-.09a2.31,2.31,0,0,1,.34-1.55,1.63,1.63,0,1,1,.72-.72,2.37,2.37,0,0,1,1.55-.34l.09-.08a2.32,2.32,0,0,1,.33-1.54,1.63,1.63,0,1,1,.72-.73,2.39,2.39,0,0,1,1.56-.34l0-.05a2.34,2.34,0,0,1,.34-1.56,1.63,1.63,0,1,1,.72-.72,2.36,2.36,0,0,1,1.55-.33l.1-.1a2.34,2.34,0,0,1,.33-1.54,1.63,1.63,0,1,1,.71-.72,2.31,2.31,0,0,1,1.57-.35l0,0a2.28,2.28,0,0,1,.35-1.56,1.64,1.64,0,1,1,.42-2.62,1.65,1.65,0,0,1,.3,1.9,2.32,2.32,0,0,1,1.54-.33l.11-.12a2.32,2.32,0,0,1,.33-1.53,1.62,1.62,0,0,1-1.91-.29,1.64,1.64,0,0,1,0-2.3,1.63,1.63,0,0,1,2.62,1.87,2.31,2.31,0,0,1,1.57-.35l0,0a2.34,2.34,0,0,1,.34-1.58,1.6,1.6,0,0,1-1.87-.3,1.63,1.63,0,1,1,2.6-.41,2.3,2.3,0,0,1,1.53-.32l.07-.08a2.35,2.35,0,0,1,.35-1.56,1.65,1.65,0,0,1-1.87-.31,1.63,1.63,0,1,1,2.6-.41,2.31,2.31,0,0,1,1.53-.32l.09-.09a2.33,2.33,0,0,1,.34-1.56,1.64,1.64,0,1,1,.72-.72,2.36,2.36,0,0,1,1.55-.33l.07-.07a2.33,2.33,0,0,1,.34-1.56,1.63,1.63,0,1,1,.73-.72,2.32,2.32,0,0,1,1.54-.32l.09-.1A2.31,2.31,0,0,1,158.71,105.67Z" transform="translate(-48.08 -48.08)"></path><path class="cls-1" d="M159.45,103.45a1.66,1.66,0,0,1,0,1.49,2.33,2.33,0,0,1,1.52-.32,2.38,2.38,0,0,1,0-.8h0A2.34,2.34,0,0,1,159.45,103.45Z" transform="translate(-48.08 -48.08)"></path></svg>